<svg xmlns="http://www.w3.org/2000/svg" viewBox="0 0 16 16" id="paypal"><g fill="#0D47A1"><path d="M5.444 9.488a.714.714 0 0 1 .707-.6h1.47c2.889 0 5.15-1.164 5.811-4.531.02-.1.051-.292.051-.292.188-1.246-.001-2.091-.68-2.858C12.057.362 10.707 0 8.98 0H3.968a.717.717 0 0 0-.709.6L1.172 13.731a.428.428 0 0 0 .425.493h3.094l.777-4.89-.024.154z"></path><path d="M7.621 9.772H6.303L5.319 16h2.138a.626.626 0 0 0 .62-.526l.025-.132.492-3.091.032-.17a.626.626 0 0 1 .619-.526h.391c2.527 0 4.505-1.018 5.083-3.963.232-1.182.12-2.173-.453-2.889-.718 3.315-3.009 5.069-6.645 5.069z"></path></g></svg>